<?xml version="1.0" encoding="UTF-8" standalone="no"?>
<!-- Created with Inkscape (http://www.inkscape.org/) -->

<svg
   width="240mm"
   height="120mm"
   viewBox="0 0 240 120"
   version="1.1"
   id="svg8"
   inkscape:version="1.4.2 (ebf0e940, 2025-05-08)"
   sodipodi:docname="tangent.svg"
   xmlns:inkscape="http://www.inkscape.org/namespaces/inkscape"
   xmlns:sodipodi="http://sodipodi.sourceforge.net/DTD/sodipodi-0.dtd"
   xmlns="http://www.w3.org/2000/svg"
   xmlns:svg="http://www.w3.org/2000/svg"
   xmlns:rdf="http://www.w3.org/1999/02/22-rdf-syntax-ns#"
   xmlns:cc="http://creativecommons.org/ns#"
   xmlns:dc="http://purl.org/dc/elements/1.1/">
  <sodipodi:namedview
     id="base"
     pagecolor="#ffffff"
     bordercolor="#666666"
     borderopacity="1.0"
     inkscape:pageopacity="0.0"
     inkscape:pageshadow="2"
     inkscape:zoom="0.86834365"
     inkscape:cx="392.12586"
     inkscape:cy="326.48364"
     inkscape:document-units="mm"
     inkscape:current-layer="layer1"
     showgrid="false"
     showborder="true"
     width="200mm"
     showguides="true"
     inkscape:guide-bbox="true"
     inkscape:window-width="1472"
     inkscape:window-height="890"
     inkscape:window-x="0"
     inkscape:window-y="37"
     inkscape:window-maximized="0"
     inkscape:showpageshadow="2"
     inkscape:pagecheckerboard="0"
     inkscape:deskcolor="#d1d1d1">
    <inkscape:grid
       type="xygrid"
       id="grid815"
       units="mm"
       spacingx="10"
       spacingy="10"
       empspacing="4"
       dotted="false"
       originx="0"
       originy="0" />
  </sodipodi:namedview>
  <defs
     id="defs2">
    <inkscape:path-effect
       effect="powerstroke"
       message=""
       id="path-effect5"
       is_visible="true"
       lpeversion="1.3"
       scale_width="1"
       interpolator_type="CentripetalCatmullRom"
       interpolator_beta="0.75"
       start_linecap_type="round"
       end_linecap_type="round"
       offset_points="41.668933,3.991205"
       linejoin_type="spiro"
       miter_limit="4"
       not_jump="true"
       sort_points="true" />
    <inkscape:path-effect
       effect="simplify"
       id="path-effect4"
       is_visible="true"
       lpeversion="1.3"
       threshold="0.012"
       steps="1"
       smooth_angles="0"
       helper_size="0"
       simplify_individual_paths="false"
       simplify_just_coalesce="false"
       step="1" />
  </defs>
  <metadata
     id="metadata5">
    <rdf:RDF>
      <cc:Work
         rdf:about="">
        <dc:format>image/svg+xml</dc:format>
        <dc:type
           rdf:resource="http://purl.org/dc/dcmitype/StillImage" />
        <dc:title />
      </cc:Work>
    </rdf:RDF>
  </metadata>
  <g
     inkscape:label="Layer 1"
     inkscape:groupmode="layer"
     id="layer1"
     transform="translate(0,-177)">
    <path
       id="path8"
       style="opacity:0.773333;fill:none;stroke:#000000;stroke-width:0.4;stroke-linecap:round;stroke-linejoin:round;stroke-dasharray:none;paint-order:stroke fill markers"
       d="m 92.899433,264.97393 c 0.0267,-0.29614 0.0535,-0.59074 0.0802,-0.88382 0.1266,-1.389 0.2532,-2.743 0.3797,-4.063 0.1266,-1.321 0.2532,-2.608 0.3798,-3.863 0.1266,-1.254 0.2531,-2.476 0.3797,-3.665 0.1266,-1.189 0.2532,-2.347 0.3797,-3.472 0.1266,-1.126 0.2532,-2.221 0.3798,-3.284 0.1266,-1.064 0.2531,-2.097 0.3797,-3.099 0.1266,-1.003 0.2532,-1.976 0.3797,-2.919 0.1266,-0.943 0.2532,-1.857 0.3798,-2.742 0.1266,-0.885 0.2531,-1.741 0.3797,-2.57 0.1266,-0.828 0.2532,-1.628 0.3797,-2.401 0.1266,-0.773 0.2532,-1.518 0.3798,-2.237 0.1266,-0.719 0.2531,-1.411 0.3797,-2.077 0.1266,-0.667 0.2532,-1.307 0.3797,-1.921 0.1266,-0.615 0.2532,-1.205 0.3798,-1.77 0.1266,-0.564 0.2531,-1.104 0.3797,-1.621 0.1266,-0.516 0.2532,-1.008 0.3797,-1.477 0.1266,-0.469 0.2532,-0.915 0.3798,-1.338 0.1265,-0.423 0.2531,-0.823 0.3797,-1.202 0.1266,-0.378 0.253197,-0.735 0.379697,-1.07 0.1266,-0.336 0.2532,-0.65 0.3798,-0.943 0.1265,-0.294 0.2531,-0.567 0.3797,-0.82 0.1266,-0.253 0.2532,-0.486 0.3797,-0.701 0.1266,-0.214 0.2532,-0.408 0.3798,-0.585 0.1265,-0.176 0.2531,-0.334 0.3797,-0.474 0.1266,-0.14 0.2532,-0.262 0.3797,-0.367 0.1266,-0.105 0.2532,-0.193 0.3798,-0.264 0.1265,-0.071 0.2531,-0.126 0.3797,-0.165 0.1266,-0.039 0.2532,-0.062 0.3797,-0.071 0.1266,-0.008 0.2532,-0.001 0.3798,0.021 0.1265,0.021 0.2531,0.057 0.3797,0.107 0.1266,0.049 0.2532,0.113 0.3797,0.189 0.1266,0.076 0.2532,0.166 0.3798,0.268 0.1265,0.102 0.2531,0.216 0.3797,0.342 0.1266,0.126 0.2532,0.264 0.3797,0.413 0.1266,0.148 0.2532,0.308 0.3798,0.478 0.1265,0.17 0.2531,0.351 0.3797,0.541 0.1266,0.19 0.2531,0.39 0.3797,0.599 0.1266,0.209 0.2532,0.427 0.3798,0.653 0.1265,0.226 0.2531,0.46 0.3797,0.702 0.1266,0.243 0.2531,0.492 0.3797,0.749 0.1266,0.257 0.2532,0.52 0.3798,0.79 0.1265,0.27 0.2531,0.546 0.3797,0.828 0.1266,0.281 0.2531,0.569 0.3797,0.861 0.1266,0.292 0.2532,0.589 0.3798,0.891 0.1265,0.301 0.2531,0.607 0.3797,0.916 0.1266,0.309 0.2531,0.622 0.3797,0.937 0.1266,0.316 0.2532,0.634 0.3798,0.955 0.1265,0.32 0.2531,0.643 0.3797,0.967 0.1266,0.324 0.2531,0.65 0.3797,0.977 0.1266,0.326 0.2532,0.654 0.3798,0.981 0.1265,0.328 0.2531,0.656 0.3797,0.983 0.1266,0.327 0.2531,0.654 0.3797,0.979 0.1266,0.325 0.2532,0.65 0.3798,0.972 0.1265,0.322 0.2531,0.643 0.3797,0.96 0.1266,0.318 0.2531,0.633 0.3797,0.945 0.1266,0.312 0.2532,0.621 0.3797,0.926 0.1266,0.304 0.2532,0.605 0.3798,0.901 0.1266,0.297 0.2531,0.588 0.3797,0.874 0.1266,0.287 0.2532,0.568 0.3797,0.843 0.1266,0.275 0.2532,0.544 0.3798,0.806 0.1266,0.262 0.2531,0.518 0.3797,0.766 0.1266,0.249 0.2532,0.49 0.3797,0.722 0.1266,0.233 0.2532,0.458 0.3798,0.675 0.1266,0.216 0.2531,0.423 0.3797,0.621 0.1266,0.198 0.2532,0.387 0.3797,0.566 0.1266,0.179 0.2532,0.347 0.3798,0.505 0.1266,0.158 0.2531,0.305 0.3797,0.441 0.1266,0.135 0.2532,0.259 0.3797,0.372 0.1266,0.112 0.2532,0.212 0.3798,0.299 0.1266,0.087 0.2531,0.162 0.3797,0.223 0.1266,0.06 0.2532,0.108 0.3797,0.141 0.1266,0.034 0.2532,0.053 0.3798,0.057 0.1266,0.004 0.2531,-0.006 0.3797,-0.032 0.1266,-0.026 0.2532,-0.068 0.3797,-0.125 0.1266,-0.058 0.2532,-0.132 0.3798,-0.223 0.1265,-0.09 0.2531,-0.198 0.3797,-0.323 0.1266,-0.125 0.2532,-0.268 0.3797,-0.429 0.1266,-0.161 0.2532,-0.34 0.3798,-0.539 0.1265,-0.198 0.2531,-0.415 0.3797,-0.652 0.1266,-0.236 0.2532,-0.493 0.3797,-0.769 0.1266,-0.277 0.2532,-0.573 0.3798,-0.891 0.1265,-0.318 0.2531,-0.657 0.3797,-1.017 0.1266,-0.36 0.2532,-0.743 0.3797,-1.147 0.1266,-0.404 0.2532,-0.831 0.3798,-1.281 0.1265,-0.449 0.2531,-0.922 0.3797,-1.418 0.1266,-0.497 0.2532,-1.017 0.3797,-1.561 0.1266,-0.544 0.2532,-1.113 0.3798,-1.707 0.1265,-0.594 0.2531,-1.213 0.3797,-1.857 0.1266,-0.645 0.2532,-1.315 0.3797,-2.012 0.1266,-0.696 0.2532,-1.42 0.3798,-2.17 0.1265,-0.75 0.2531,-1.527 0.3797,-2.332 0.1266,-0.805 0.2532,-1.638 0.3797,-2.499 0.1266,-0.862 0.2532,-1.751 0.3798,-2.67 0.1265,-0.919 0.2531,-1.867 0.3797,-2.845 0.1266,-0.977 0.2531,-1.985 0.3797,-3.023 0.1266,-1.038 0.2532,-2.107 0.3798,-3.206 0.1265,-1.1 0.2531,-2.231 0.3797,-3.394 0.1266,-1.162 0.2531,-2.357 0.3797,-3.584 0.1266,-1.227 0.2532,-2.487 0.3798,-3.78 0.1265,-1.293 0.2531,-2.619 0.3797,-3.979 0.1266,-1.36 0.2531,-2.754 0.3797,-4.182 0.006,-0.0644 0.0114,-0.1289 0.0171,-0.19346" />
    <path
       style="opacity:0.773333;fill:none;stroke:#000000;stroke-width:0.4;stroke-linecap:round;stroke-linejoin:round;stroke-dasharray:none;paint-order:stroke fill markers"
       d="m 115.19402,276.94711 v -83.8153"
       id="path5" />
    <path
       style="opacity:0.773333;fill:none;stroke:#000000;stroke-width:0.4;stroke-linecap:round;stroke-linejoin:round;stroke-dasharray:none;paint-order:stroke fill markers"
       d="M 77.410621,235.04011 H 152.97742"
       id="path2" />
    <path
       style="opacity:1;fill:#ff0000;stroke:#ff0000;stroke-width:0.499999;stroke-linecap:round;stroke-linejoin:round;paint-order:stroke fill markers"
       d="m 123.17641,241.55887 13.03793,-48.42662"
       id="path1" />
    <ellipse
       style="opacity:1;fill:#ff0000;stroke:#ff0000;stroke-width:0.499999;stroke-linecap:round;stroke-linejoin:round;paint-order:stroke fill markers"
       id="path3"
       cx="124.75219"
       cy="235.18193"
       rx="1.0747353"
       ry="1.169565" />
    <text
       xml:space="preserve"
       style="font-size:3.175px;text-align:start;writing-mode:lr-tb;direction:ltr;text-anchor:start;opacity:1;fill:#ff0000;stroke:#ff0000;stroke-width:0.499999;stroke-linecap:round;stroke-linejoin:round;paint-order:stroke fill markers"
       x="46.75227"
       y="211.64377"
       id="text4"><tspan
         sodipodi:role="line"
         id="tspan4"
         style="stroke-width:0.5"
         x="46.75227"
         y="211.64377" /></text>
  </g>
</svg>
